<svg width="23" height="23" viewBox="0 0 23 23" fill="none" xmlns="http://www.w3.org/2000/svg">
<path d="M11.9408 21.8021C11.7779 21.8021 11.615 21.8021 11.4521 21.7925C6.08542 21.5529 1.60042 17.2308 1.22667 11.96C0.900835 7.43665 3.51708 3.2104 7.73375 1.43749C8.93167 0.939154 9.56417 1.32249 9.8325 1.6004C10.1008 1.86874 10.4746 2.49165 9.97625 3.63207C9.53542 4.6479 9.315 5.73082 9.32458 6.84249C9.34375 11.0879 12.8704 14.6912 17.1733 14.8637C17.7963 14.8925 18.4096 14.8446 19.0038 14.7392C20.2688 14.5092 20.7958 15.0171 20.9971 15.3429C21.1983 15.6687 21.4283 16.3683 20.6617 17.4033C18.63 20.1825 15.4004 21.8021 11.9408 21.8021ZM2.65458 11.8546C2.98042 16.4162 6.87125 20.1537 11.5096 20.355C14.6625 20.5083 17.6525 19.0708 19.4925 16.56C19.6363 16.3587 19.7033 16.215 19.7321 16.1383C19.6458 16.1287 19.4925 16.1192 19.2529 16.1671C18.5533 16.2917 17.825 16.3396 17.1063 16.3108C12.0463 16.1096 7.90625 11.8642 7.8775 6.86165C7.8775 5.53915 8.13625 4.26457 8.66333 3.06665C8.75917 2.85582 8.77833 2.71207 8.78792 2.6354C8.70167 2.6354 8.54833 2.65457 8.29917 2.75999C4.64792 4.29332 2.38625 7.95415 2.65458 11.8546Z" fill="#292D32"/>
</svg>
