<svg width="9" height="11" viewBox="0 0 9 11" fill="none" xmlns="http://www.w3.org/2000/svg">
<path fill-rule="evenodd" clip-rule="evenodd" d="M7.54391 1.48183C6.59556 0.516749 5.06099 0.516749 4.11264 1.48183L0.953971 4.69622C0.808358 4.8444 0.573124 4.8444 0.427511 4.69622C0.281898 4.54804 0.281898 4.3049 0.427511 4.15671L3.58244 0.946083C4.82202 -0.315361 6.83075 -0.315361 8.07032 0.946083C9.3099 2.20753 9.3099 4.25168 8.07032 5.51313L3.82514 9.83319C2.95146 10.7223 1.53267 10.7223 0.655259 9.83319C-0.21842 8.9441 -0.21842 7.50029 0.655259 6.6112L0.658997 6.60739L3.86621 3.3816C3.86621 3.3816 3.86621 3.38159 3.86621 3.37779C4.36652 2.86866 5.17673 2.83444 5.69572 3.36258C6.20723 3.88312 6.20723 4.72284 5.69572 5.24338L3.45178 7.5269C3.30616 7.67508 3.07097 7.67508 2.92162 7.5269C2.77601 7.37872 2.77601 7.13933 2.92162 6.99115L5.16925 4.70763C5.38581 4.48346 5.38581 4.1225 5.16925 3.89833C4.95644 3.68555 4.62042 3.68557 4.39267 3.91734L1.18546 7.14694C0.603004 7.73967 0.603004 8.70472 1.18546 9.29745C1.76791 9.89017 2.71254 9.89017 3.29499 9.29745L7.54391 4.97358C8.49226 4.0085 8.49226 2.44691 7.54391 1.48183Z" fill="#6B6B6B"/>
</svg>
