<svg width="22" height="22" viewBox="0 0 22 22" fill="none" xmlns="http://www.w3.org/2000/svg">
<path fill-rule="evenodd" clip-rule="evenodd" d="M7.86342 2.93661C7.96557 1.29785 9.33114 0 11 0C12.6689 0 14.0344 1.29785 14.1366 2.93661C14.2521 2.98128 14.366 3.0283 14.4784 3.07767C15.7127 1.99143 17.5977 2.03612 18.7786 3.21405C19.9587 4.39119 20.0035 6.27133 18.9145 7.50255C18.964 7.61462 19.0111 7.72826 19.0559 7.84347C20.6988 7.94535 22 9.30746 22 10.9721C22 12.6367 20.6988 13.9988 19.0559 14.1007C19.0111 14.2159 18.964 14.3295 18.9145 14.4416C20.0035 15.6728 19.9587 17.553 18.7778 18.7301C17.5976 19.908 15.7127 19.9527 14.4784 18.8665C14.366 18.9159 14.2521 18.9629 14.1366 19.0076C14.0344 20.6463 12.6689 21.9442 11 21.9442C9.33114 21.9442 7.96557 20.6463 7.86342 19.0076C7.74792 18.9629 7.634 18.9159 7.52164 18.8665C6.28728 19.9527 4.40237 19.908 3.22222 18.7301C2.0413 17.553 1.9965 15.6728 3.0855 14.4416C3.036 14.3295 2.98886 14.2159 2.94408 14.1007C1.30115 13.9988 0 12.6367 0 10.9721C0 9.30746 1.30115 7.94535 2.94408 7.84347C2.98886 7.72826 3.036 7.61462 3.0855 7.50255C1.9965 6.27133 2.0413 4.39119 3.22222 3.21405C4.40237 2.03612 6.28728 1.99143 7.52164 3.07767C7.634 3.0283 7.74792 2.98128 7.86342 2.93661ZM4.33323 6.53859C4.73237 6.9375 4.80545 7.52682 4.58466 7.99941C4.50137 8.17966 4.42515 8.36306 4.356 8.55037C4.17686 9.04019 3.70779 9.40464 3.14286 9.40464C2.27464 9.40464 1.57143 10.1061 1.57143 10.9721C1.57143 11.8381 2.27464 12.5395 3.14286 12.5395C3.70779 12.5395 4.17686 12.904 4.356 13.3938C4.42515 13.5811 4.50137 13.7645 4.58466 13.9448C4.80545 14.4173 4.73237 15.0067 4.33323 15.4056C3.71958 16.0177 3.71958 17.0098 4.33323 17.6219C4.94687 18.234 5.94159 18.234 6.55523 17.6219C6.95516 17.2238 7.54598 17.1509 8.01976 17.3711C8.20048 17.4542 8.38434 17.5302 8.57212 17.5992C9.06319 17.7779 9.42857 18.2458 9.42857 18.8093C9.42857 19.6753 10.1318 20.3767 11 20.3767C11.8682 20.3767 12.5714 19.6753 12.5714 18.8093C12.5714 18.2458 12.9368 17.7779 13.4279 17.5992C13.6157 17.5302 13.8003 17.4542 13.9802 17.3711C14.454 17.1509 15.0448 17.2238 15.4448 17.6219C16.0584 18.234 17.0531 18.234 17.6668 17.6219C18.2804 17.0098 18.2804 16.0177 17.6668 15.4056C17.2676 15.0067 17.1946 14.4173 17.4153 13.9448C17.4986 13.7645 17.5749 13.5811 17.644 13.3938C17.8231 12.904 18.2922 12.5395 18.8571 12.5395C19.7254 12.5395 20.4286 11.8381 20.4286 10.9721C20.4286 10.1061 19.7254 9.40464 18.8571 9.40464C18.2922 9.40464 17.8231 9.04019 17.644 8.55037C17.5749 8.36306 17.4986 8.17966 17.4153 7.99941C17.1946 7.52682 17.2676 6.9375 17.6668 6.53859C18.2804 5.92651 18.2804 4.93431 17.6668 4.32223C17.0531 3.71014 16.0584 3.71014 15.4448 4.32223C15.0448 4.72036 14.454 4.79325 13.9802 4.57302C13.8003 4.48995 13.6157 4.41392 13.4279 4.34495C12.9368 4.16626 12.5714 3.69837 12.5714 3.13488C12.5714 2.26887 11.8682 1.56744 11 1.56744C10.1318 1.56744 9.42857 2.26887 9.42857 3.13488C9.42857 3.69837 9.06319 4.16626 8.57212 4.34495C8.38434 4.41392 8.19969 4.48995 8.01976 4.57302C7.54598 4.79325 6.95516 4.72036 6.55523 4.32223C5.94159 3.71014 4.94687 3.71014 4.33323 4.32223C3.71958 4.93431 3.71958 5.92651 4.33323 6.53859Z" fill="#F4F4F4"/>
<path fill-rule="evenodd" clip-rule="evenodd" d="M11 7.93907C9.3208 7.93907 7.95935 9.29707 7.95935 10.972C7.95935 12.6469 9.3208 14.0049 11 14.0049C12.6792 14.0049 14.0406 12.6469 14.0406 10.972C14.0406 9.29707 12.6792 7.93907 11 7.93907ZM6.43902 10.972C6.43902 8.45922 8.48082 6.42261 11 6.42261C13.5192 6.42261 15.561 8.45922 15.561 10.972C15.561 13.4848 13.5192 15.5214 11 15.5214C8.48082 15.5214 6.43902 13.4848 6.43902 10.972Z" fill="#F4F4F4"/>
</svg>
