<svg width="28" height="28" viewBox="0 0 28 28" fill="none" xmlns="http://www.w3.org/2000/svg">
<path d="M14 18.375C11.585 18.375 9.625 16.415 9.625 14C9.625 11.585 11.585 9.62501 14 9.62501C16.415 9.62501 18.375 11.585 18.375 14C18.375 16.415 16.415 18.375 14 18.375ZM14 11.375C12.5533 11.375 11.375 12.5533 11.375 14C11.375 15.4467 12.5533 16.625 14 16.625C15.4467 16.625 16.625 15.4467 16.625 14C16.625 12.5533 15.4467 11.375 14 11.375Z" fill="#376272"/>
<path d="M17.745 25.8884C17.5 25.8884 17.255 25.8534 17.01 25.795C16.2867 25.5967 15.68 25.1417 15.295 24.5L15.155 24.2667C14.4667 23.0767 13.5217 23.0767 12.8333 24.2667L12.705 24.4884C12.32 25.1417 11.7133 25.6084 10.99 25.795C10.255 25.9934 9.49667 25.8884 8.855 25.5034L6.84833 24.3484C6.13667 23.94 5.62333 23.275 5.40167 22.47C5.19167 21.665 5.29667 20.8367 5.705 20.125C6.04333 19.53 6.13667 18.9934 5.93833 18.655C5.74 18.3167 5.23833 18.1184 4.55 18.1184C2.84667 18.1184 1.45833 16.73 1.45833 15.0267V12.9734C1.45833 11.27 2.84667 9.88172 4.55 9.88172C5.23833 9.88172 5.74 9.68338 5.93833 9.34505C6.13667 9.00672 6.055 8.47005 5.705 7.87505C5.29667 7.16338 5.19167 6.32338 5.40167 5.53005C5.61167 4.72505 6.125 4.06005 6.84833 3.65172L8.86667 2.49672C10.185 1.71505 11.9233 2.17005 12.7167 3.51171L12.8567 3.74505C13.545 4.93505 14.49 4.93505 15.1783 3.74505L15.3067 3.52338C16.1 2.17005 17.8383 1.71505 19.1683 2.50838L21.175 3.66338C21.8867 4.07172 22.4 4.73671 22.6217 5.54171C22.8317 6.34672 22.7267 7.17505 22.3183 7.88672C21.98 8.48172 21.8867 9.01838 22.085 9.35672C22.2833 9.69505 22.785 9.89338 23.4733 9.89338C25.1767 9.89338 26.565 11.2817 26.565 12.985V15.0384C26.565 16.7417 25.1767 18.13 23.4733 18.13C22.785 18.13 22.2833 18.3284 22.085 18.6667C21.8867 19.005 21.9683 19.5417 22.3183 20.1367C22.7267 20.8484 22.8433 21.6884 22.6217 22.4817C22.4117 23.2867 21.8983 23.9517 21.175 24.36L19.1567 25.515C18.7133 25.76 18.235 25.8884 17.745 25.8884ZM14 21.5717C15.0383 21.5717 16.0067 22.225 16.6717 23.38L16.8 23.6017C16.94 23.8467 17.1733 24.0217 17.4533 24.0917C17.7333 24.1617 18.0133 24.1267 18.2467 23.9867L20.265 22.82C20.5683 22.645 20.8017 22.3534 20.895 22.0034C20.9883 21.6534 20.9417 21.2917 20.7667 20.9884C20.1017 19.845 20.02 18.6667 20.5333 17.7684C21.0467 16.87 22.1083 16.3567 23.4383 16.3567C24.185 16.3567 24.78 15.7617 24.78 15.015V12.9617C24.78 12.2267 24.185 11.62 23.4383 11.62C22.1083 11.62 21.0467 11.1067 20.5333 10.2084C20.02 9.31005 20.1017 8.13172 20.7667 6.98838C20.9417 6.68505 20.9883 6.32338 20.895 5.97338C20.8017 5.62338 20.58 5.34338 20.2767 5.15671L18.2583 4.00171C17.7567 3.69838 17.0917 3.87338 16.7883 4.38671L16.66 4.60838C15.995 5.76338 15.0267 6.41671 13.9883 6.41671C12.95 6.41671 11.9817 5.76338 11.3167 4.60838L11.1883 4.37505C10.8967 3.88505 10.2433 3.71005 9.74167 4.00171L7.72333 5.16838C7.42 5.34338 7.18667 5.63505 7.09333 5.98505C7 6.33505 7.04667 6.69672 7.22167 7.00005C7.88667 8.14338 7.96833 9.32172 7.455 10.22C6.94167 11.1184 5.88 11.6317 4.55 11.6317C3.80333 11.6317 3.20833 12.2267 3.20833 12.9734V15.0267C3.20833 15.7617 3.80333 16.3684 4.55 16.3684C5.88 16.3684 6.94167 16.8817 7.455 17.78C7.96833 18.6784 7.88667 19.8567 7.22167 21C7.04667 21.3034 7 21.665 7.09333 22.015C7.18667 22.365 7.40833 22.645 7.71167 22.8317L9.73 23.9867C9.975 24.1384 10.2667 24.1734 10.535 24.1034C10.815 24.0334 11.0483 23.8467 11.2 23.6017L11.3283 23.38C11.9933 22.2367 12.9617 21.5717 14 21.5717Z" fill="#376272"/>
</svg>
