<svg width="21" height="21" viewBox="0 0 21 21" fill="none" xmlns="http://www.w3.org/2000/svg">
<path d="M5 6.73296C5 6.32151 5.3375 5.98486 5.75 5.98486H14.75C15.1625 5.98486 15.5 6.32151 15.5 6.73296C15.5 7.14441 15.1625 7.48106 14.75 7.48106H5.75C5.3375 7.48106 5 7.14441 5 6.73296Z" fill="white"/>
<path d="M5.75 10.4734C5.3375 10.4734 5 10.81 5 11.2215C5 11.6329 5.3375 11.9696 5.75 11.9696H11.75C12.1625 11.9696 12.5 11.6329 12.5 11.2215C12.5 10.81 12.1625 10.4734 11.75 10.4734H5.75Z" fill="white"/>
<path fill-rule="evenodd" clip-rule="evenodd" d="M21 3.73271V14.1843C21 16.2447 19.32 17.917 17.25 17.917H6.23996L2.37003 20.6643C1.38003 21.3735 0 20.6643 0 19.4549V3.73271C0 1.67225 1.68 0 3.75 0H17.25C19.32 0 21 1.67225 21 3.73271ZM19.5 14.1843V3.73271C19.5 2.49345 18.495 1.49308 17.25 1.49308H3.75C2.505 1.49308 1.5 2.49345 1.5 3.73271V19.4549L5.76004 16.4239H17.25C18.495 16.4239 19.5 15.4235 19.5 14.1843Z" fill="white"/>
</svg>
