<svg width="28" height="28" viewBox="0 0 28 28" fill="none" xmlns="http://www.w3.org/2000/svg">
<path d="M14 26.6117C13.195 26.6117 12.4367 26.2033 11.9 25.4917L10.15 23.1584C10.115 23.1117 9.975 23.0534 9.91667 23.0417H9.33333C4.46833 23.0417 1.45833 21.7233 1.45833 15.1667V9.33335C1.45833 4.17668 4.17667 1.45835 9.33333 1.45835H18.6667C23.8233 1.45835 26.5417 4.17668 26.5417 9.33335V15.1667C26.5417 20.3233 23.8233 23.0417 18.6667 23.0417H18.0833C17.99 23.0417 17.9083 23.0884 17.85 23.1584L16.1 25.4917C15.5633 26.2033 14.805 26.6117 14 26.6117ZM9.33333 3.20835C5.15667 3.20835 3.20833 5.15668 3.20833 9.33335V15.1667C3.20833 20.44 5.01667 21.2917 9.33333 21.2917H9.91667C10.5117 21.2917 11.1883 21.63 11.55 22.1084L13.3 24.4417C13.7083 24.9784 14.2917 24.9784 14.7 24.4417L16.45 22.1084C16.835 21.595 17.4417 21.2917 18.0833 21.2917H18.6667C22.8433 21.2917 24.7917 19.3433 24.7917 15.1667V9.33335C24.7917 5.15668 22.8433 3.20835 18.6667 3.20835H9.33333Z" fill="#376272"/>
<path d="M14 14C13.3467 14 12.8333 13.475 12.8333 12.8333C12.8333 12.1917 13.3583 11.6667 14 11.6667C14.6417 11.6667 15.1667 12.1917 15.1667 12.8333C15.1667 13.475 14.6533 14 14 14Z" fill="#376272"/>
<path d="M18.6667 14C18.0133 14 17.5 13.475 17.5 12.8333C17.5 12.1917 18.025 11.6667 18.6667 11.6667C19.3083 11.6667 19.8333 12.1917 19.8333 12.8333C19.8333 13.475 19.32 14 18.6667 14Z" fill="#376272"/>
<path d="M9.33333 14C8.68 14 8.16667 13.475 8.16667 12.8333C8.16667 12.1917 8.69167 11.6667 9.33333 11.6667C9.975 11.6667 10.5 12.1917 10.5 12.8333C10.5 13.475 9.98667 14 9.33333 14Z" fill="#376272"/>
</svg>
