<svg width="23" height="23" viewBox="0 0 23 23" fill="none" xmlns="http://www.w3.org/2000/svg">
<path d="M11.5 15.0938C9.51622 15.0938 7.90622 13.4838 7.90622 11.5C7.90622 9.51625 9.51622 7.90625 11.5 7.90625C13.4837 7.90625 15.0937 9.51625 15.0937 11.5C15.0937 13.4838 13.4837 15.0938 11.5 15.0938ZM11.5 9.34375C10.3116 9.34375 9.34372 10.3117 9.34372 11.5C9.34372 12.6883 10.3116 13.6562 11.5 13.6562C12.6883 13.6562 13.6562 12.6883 13.6562 11.5C13.6562 10.3117 12.6883 9.34375 11.5 9.34375Z" fill="#1F3A44"/>
<path d="M14.5762 21.2654C14.3749 21.2654 14.1737 21.2367 13.9724 21.1887C13.3783 21.0258 12.8799 20.6521 12.5637 20.125L12.4487 19.9333C11.8833 18.9558 11.107 18.9558 10.5416 19.9333L10.4362 20.1154C10.1199 20.6521 9.6216 21.0354 9.02743 21.1887C8.42368 21.3517 7.80076 21.2654 7.27368 20.9492L5.62535 20.0004C5.04076 19.665 4.6191 19.1187 4.43701 18.4575C4.26451 17.7962 4.35076 17.1158 4.68618 16.5312C4.9641 16.0425 5.04076 15.6017 4.87785 15.3237C4.71493 15.0458 4.30285 14.8829 3.73743 14.8829C2.33826 14.8829 1.19785 13.7425 1.19785 12.3433V10.6567C1.19785 9.25749 2.33826 8.11707 3.73743 8.11707C4.30285 8.11707 4.71493 7.95416 4.87785 7.67624C5.04076 7.39832 4.97368 6.95749 4.68618 6.46874C4.35076 5.88416 4.26451 5.19416 4.43701 4.54249C4.60951 3.88124 5.03118 3.33499 5.62535 2.99957L7.28326 2.05082C8.36618 1.40874 9.7941 1.78249 10.4458 2.88457L10.5608 3.07624C11.1262 4.05374 11.9024 4.05374 12.4678 3.07624L12.5733 2.89416C13.2249 1.78249 14.6528 1.40874 15.7453 2.06041L17.3937 3.00916C17.9783 3.34457 18.3999 3.89082 18.582 4.55207C18.7545 5.21332 18.6683 5.89374 18.3328 6.47832C18.0549 6.96707 17.9783 7.40791 18.1412 7.68582C18.3041 7.96374 18.7162 8.12666 19.2816 8.12666C20.6808 8.12666 21.8212 9.26707 21.8212 10.6662V12.3529C21.8212 13.7521 20.6808 14.8925 19.2816 14.8925C18.7162 14.8925 18.3041 15.0554 18.1412 15.3333C17.9783 15.6112 18.0453 16.0521 18.3328 16.5408C18.6683 17.1254 18.7641 17.8154 18.582 18.4671C18.4095 19.1283 17.9878 19.6746 17.3937 20.01L15.7358 20.9587C15.3716 21.16 14.9787 21.2654 14.5762 21.2654ZM11.4999 17.7196C12.3528 17.7196 13.1483 18.2562 13.6945 19.205L13.7999 19.3871C13.9149 19.5883 14.1066 19.7321 14.3366 19.7896C14.5666 19.8471 14.7966 19.8183 14.9883 19.7033L16.6462 18.745C16.8953 18.6012 17.087 18.3617 17.1637 18.0742C17.2403 17.7867 17.202 17.4896 17.0583 17.2404C16.512 16.3012 16.4449 15.3333 16.8666 14.5954C17.2883 13.8575 18.1603 13.4358 19.2528 13.4358C19.8662 13.4358 20.3549 12.9471 20.3549 12.3337V10.6471C20.3549 10.0433 19.8662 9.54499 19.2528 9.54499C18.1603 9.54499 17.2883 9.12332 16.8666 8.38541C16.4449 7.64749 16.512 6.67957 17.0583 5.74041C17.202 5.49124 17.2403 5.19416 17.1637 4.90666C17.087 4.61916 16.9049 4.38916 16.6558 4.23582L14.9978 3.28707C14.5858 3.03791 14.0395 3.18166 13.7903 3.60332L13.6849 3.78541C13.1387 4.73416 12.3433 5.27082 11.4903 5.27082C10.6374 5.27082 9.84201 4.73416 9.29576 3.78541L9.19035 3.59374C8.95076 3.19124 8.4141 3.04749 8.00201 3.28707L6.3441 4.24541C6.09493 4.38916 5.90326 4.62874 5.8266 4.91624C5.74993 5.20374 5.78826 5.50082 5.93201 5.74999C6.47826 6.68916 6.54535 7.65707 6.12368 8.39499C5.70201 9.13291 4.82993 9.55457 3.73743 9.55457C3.1241 9.55457 2.63535 10.0433 2.63535 10.6567V12.3433C2.63535 12.9471 3.1241 13.4454 3.73743 13.4454C4.82993 13.4454 5.70201 13.8671 6.12368 14.605C6.54535 15.3429 6.47826 16.3108 5.93201 17.25C5.78826 17.4992 5.74993 17.7962 5.8266 18.0837C5.90326 18.3712 6.08535 18.6012 6.33451 18.7546L7.99243 19.7033C8.19368 19.8279 8.43326 19.8567 8.65368 19.7992C8.88368 19.7417 9.07535 19.5883 9.19993 19.3871L9.30535 19.205C9.8516 18.2658 10.647 17.7196 11.4999 17.7196Z" fill="#1F3A44"/>
</svg>
