<svg width="23" height="23" viewBox="0 0 23 23" fill="none" xmlns="http://www.w3.org/2000/svg">
<path d="M11.5001 12.2188C8.46215 12.2188 5.98965 9.74627 5.98965 6.70835C5.98965 3.67044 8.46215 1.19794 11.5001 1.19794C14.538 1.19794 17.0105 3.67044 17.0105 6.70835C17.0105 9.74627 14.538 12.2188 11.5001 12.2188ZM11.5001 2.63544C9.25757 2.63544 7.42715 4.46585 7.42715 6.70835C7.42715 8.95085 9.25757 10.7813 11.5001 10.7813C13.7426 10.7813 15.573 8.95085 15.573 6.70835C15.573 4.46585 13.7426 2.63544 11.5001 2.63544Z" fill="#1F3A44"/>
<path d="M19.7321 21.8021C19.3392 21.8021 19.0134 21.4763 19.0134 21.0833C19.0134 17.7771 15.6401 15.0938 11.5001 15.0938C7.36005 15.0938 3.98672 17.7771 3.98672 21.0833C3.98672 21.4763 3.66089 21.8021 3.26797 21.8021C2.87506 21.8021 2.54922 21.4763 2.54922 21.0833C2.54922 16.9913 6.56464 13.6562 11.5001 13.6562C16.4355 13.6562 20.4509 16.9913 20.4509 21.0833C20.4509 21.4763 20.1251 21.8021 19.7321 21.8021Z" fill="#1F3A44"/>
</svg>
