<svg width="23" height="23" viewBox="0 0 23 23" fill="none" xmlns="http://www.w3.org/2000/svg">
<path d="M1.64286 11.5C1.64286 6.05393 6.05639 1.64286 11.5 1.64286C16.9436 1.64286 21.3571 6.05393 21.3571 11.5C21.3571 16.9461 16.9436 21.3571 11.5 21.3571C11.0466 21.3571 10.6786 21.7268 10.6786 22.1786C10.6786 22.6304 11.0466 23 11.5 23C17.8513 23 23 17.8496 23 11.5C23 5.15036 17.8513 0 11.5 0C5.14871 0 0 5.15036 0 11.5C0 11.9518 0.368 12.3214 0.821429 12.3214C1.27486 12.3214 1.64286 11.9518 1.64286 11.5Z" fill="#376272"/>
<path d="M12.685 13.7517C12.8845 13.5973 13 13.3697 13 13.1259V5.81259C13 5.36567 12.608 5 12.125 5C11.642 5 11.25 5.36567 11.25 5.81259V12.744L6.31492 16.5632C5.94392 16.8557 5.89317 17.3677 6.20293 17.709C6.5118 18.0503 7.06395 18.099 7.43496 17.8146L12.685 13.7517Z" fill="#376272"/>
</svg>
