<svg width="23" height="23" viewBox="0 0 23 23" fill="none" xmlns="http://www.w3.org/2000/svg">
<path d="M7.66666 21.3899C7.39832 21.3899 7.12039 21.3228 6.87122 21.1887C6.32497 20.9012 5.98957 20.3261 5.98957 19.7128V18.352C3.09541 18.0549 1.19791 15.9274 1.19791 12.8799V7.12992C1.19791 3.83326 3.41166 1.61951 6.70832 1.61951H16.2917C19.5883 1.61951 21.8021 3.83326 21.8021 7.12992V12.8799C21.8021 16.1765 19.5883 18.3903 16.2917 18.3903H12.6787L8.59621 21.112C8.3183 21.2941 7.99249 21.3899 7.66666 21.3899ZM6.70832 3.04741C4.23582 3.04741 2.63541 4.64783 2.63541 7.12033V12.8704C2.63541 15.3429 4.23582 16.9433 6.70832 16.9433C7.10124 16.9433 7.42707 17.2691 7.42707 17.6621V19.7033C7.42707 19.8279 7.50374 19.8854 7.55166 19.9141C7.59958 19.9429 7.69542 19.9716 7.80084 19.9045L12.0654 17.0679C12.1804 16.9912 12.3242 16.9433 12.4679 16.9433H16.3012C18.7738 16.9433 20.3742 15.3429 20.3742 12.8704V7.12033C20.3742 4.64783 18.7738 3.04741 16.3012 3.04741H6.70832Z" fill="#1F3A44"/>
<path d="M11.4998 11.6053C11.1069 11.6053 10.7811 11.2795 10.7811 10.8866V10.6854C10.7811 9.57372 11.5957 9.02746 11.9023 8.81662C12.2569 8.57704 12.3719 8.41413 12.3719 8.16496C12.3719 7.6858 11.979 7.29285 11.4998 7.29285C11.0207 7.29285 10.6278 7.6858 10.6278 8.16496C10.6278 8.55788 10.3019 8.88371 9.90903 8.88371C9.51611 8.88371 9.19028 8.55788 9.19028 8.16496C9.19028 6.89038 10.2253 5.85535 11.4998 5.85535C12.7744 5.85535 13.8094 6.89038 13.8094 8.16496C13.8094 9.25746 13.0044 9.8037 12.7073 10.0049C12.3336 10.2541 12.2186 10.4171 12.2186 10.6854V10.8866C12.2186 11.2891 11.8928 11.6053 11.4998 11.6053Z" fill="#1F3A44"/>
<path d="M11.5 13.9917C11.0975 13.9917 10.7812 13.6659 10.7812 13.2729C10.7812 12.88 11.1071 12.5542 11.5 12.5542C11.8929 12.5542 12.2188 12.88 12.2188 13.2729C12.2188 13.6659 11.9025 13.9917 11.5 13.9917Z" fill="#1F3A44"/>
</svg>
