<svg width="16" height="14" viewBox="0 0 16 14" fill="none" xmlns="http://www.w3.org/2000/svg">
<path d="M0.923077 5.87442C0.413276 5.87442 -6.07114e-08 6.2877 -6.07114e-08 6.7975C-6.07114e-08 7.3073 0.413276 7.72057 0.923077 7.72057L0.923077 5.87442ZM15.7296 7.45021C16.0901 7.08973 16.0901 6.50527 15.7296 6.14478L9.85521 0.270357C9.49473 -0.0901272 8.91027 -0.0901272 8.54978 0.270357C8.1893 0.630841 8.1893 1.2153 8.54978 1.57578L13.7715 6.7975L8.54978 12.0192C8.1893 12.3797 8.1893 12.9642 8.54978 13.3246C8.91027 13.6851 9.49473 13.6851 9.85521 13.3246L15.7296 7.45021ZM0.923077 7.72057L15.0769 7.72057V5.87442L0.923077 5.87442L0.923077 7.72057Z" fill="white"/>
</svg>
