<svg width="23" height="23" viewBox="0 0 23 23" fill="none" xmlns="http://www.w3.org/2000/svg">
<path d="M11.5001 12.2187C8.46215 12.2187 5.98965 9.74621 5.98965 6.70829C5.98965 3.67038 8.46215 1.19788 11.5001 1.19788C14.538 1.19788 17.0105 3.67038 17.0105 6.70829C17.0105 9.74621 14.538 12.2187 11.5001 12.2187ZM11.5001 2.63538C9.25757 2.63538 7.42715 4.46579 7.42715 6.70829C7.42715 8.95079 9.25757 10.7812 11.5001 10.7812C13.7426 10.7812 15.573 8.95079 15.573 6.70829C15.573 4.46579 13.7426 2.63538 11.5001 2.63538Z" fill="#9B0000"/>
<path d="M19.7321 21.8021C19.3392 21.8021 19.0134 21.4763 19.0134 21.0833C19.0134 17.7771 15.6401 15.0938 11.5001 15.0938C7.36005 15.0938 3.98672 17.7771 3.98672 21.0833C3.98672 21.4763 3.66089 21.8021 3.26797 21.8021C2.87506 21.8021 2.54922 21.4763 2.54922 21.0833C2.54922 16.9913 6.56464 13.6562 11.5001 13.6562C16.4355 13.6562 20.4509 16.9913 20.4509 21.0833C20.4509 21.4763 20.1251 21.8021 19.7321 21.8021Z" fill="#9B0000"/>
</svg>
