<svg width="28" height="28" viewBox="0 0 28 28" fill="none" xmlns="http://www.w3.org/2000/svg">
<path d="M14 14.875C10.3017 14.875 7.29167 11.865 7.29167 8.16668C7.29167 4.46835 10.3017 1.45835 14 1.45835C17.6983 1.45835 20.7083 4.46835 20.7083 8.16668C20.7083 11.865 17.6983 14.875 14 14.875ZM14 3.20835C11.27 3.20835 9.04167 5.43668 9.04167 8.16668C9.04167 10.8967 11.27 13.125 14 13.125C16.73 13.125 18.9583 10.8967 18.9583 8.16668C18.9583 5.43668 16.73 3.20835 14 3.20835Z" fill="#376272"/>
<path d="M24.0218 26.5416C23.5435 26.5416 23.1468 26.145 23.1468 25.6666C23.1468 21.6416 19.0402 18.375 14.0002 18.375C8.96018 18.375 4.85352 21.6416 4.85352 25.6666C4.85352 26.145 4.45685 26.5416 3.97852 26.5416C3.50018 26.5416 3.10352 26.145 3.10352 25.6666C3.10352 20.685 7.99185 16.625 14.0002 16.625C20.0085 16.625 24.8968 20.685 24.8968 25.6666C24.8968 26.145 24.5002 26.5416 24.0218 26.5416Z" fill="#376272"/>
</svg>
