<svg width="23" height="23" viewBox="0 0 23 23" fill="none" xmlns="http://www.w3.org/2000/svg">
<path d="M11.4999 21.16C11.2124 21.16 10.9249 21.0929 10.6853 20.9587C8.89326 19.9812 5.74035 18.9462 3.76618 18.6875L3.48826 18.6492C2.23285 18.4958 1.19785 17.3171 1.19785 16.0425V4.46582C1.19785 3.70874 1.49493 3.01874 2.04118 2.5204C2.58743 2.02207 3.2966 1.78249 4.0441 1.84957C6.15243 2.01249 9.3341 3.06665 11.1358 4.19749L11.3658 4.33165C11.4328 4.36999 11.5766 4.36999 11.6341 4.34124L11.7874 4.2454C13.5891 3.11457 16.7708 2.04124 18.8887 1.85915C18.9078 1.85915 18.9845 1.85915 19.0037 1.85915C19.7033 1.79207 20.422 2.04124 20.9587 2.53957C21.5049 3.0379 21.802 3.7279 21.802 4.48499V16.0521C21.802 17.3362 20.767 18.5054 19.502 18.6587L19.1858 18.6971C17.2116 18.9558 14.0491 20.0004 12.2953 20.9683C12.0653 21.1025 11.7874 21.16 11.4999 21.16ZM3.8141 3.27749C3.50743 3.27749 3.22951 3.3829 3.0091 3.58415C2.76951 3.80457 2.63535 4.12082 2.63535 4.46582V16.0425C2.63535 16.6079 3.1241 17.1542 3.67035 17.2308L3.95785 17.2692C6.1141 17.5567 9.42035 18.6396 11.337 19.6842C11.4233 19.7225 11.5478 19.7321 11.5958 19.7129C13.5124 18.6492 16.8378 17.5567 19.0037 17.2692L19.3295 17.2308C19.8758 17.1637 20.3645 16.6079 20.3645 16.0425V4.4754C20.3645 4.12082 20.2303 3.81415 19.9908 3.58415C19.7416 3.36374 19.4253 3.25832 19.0708 3.27749C19.0516 3.27749 18.9749 3.27749 18.9558 3.27749C17.1253 3.4404 14.1737 4.42749 12.5637 5.43374L12.4103 5.53915C11.8833 5.86499 11.1358 5.86499 10.6278 5.54874L10.3978 5.41457C8.7591 4.40832 5.80743 3.43082 3.9291 3.27749C3.89076 3.27749 3.85243 3.27749 3.8141 3.27749Z" fill="#1F3A44"/>
<path d="M11.5 20.355C11.1071 20.355 10.7812 20.0291 10.7812 19.6362V5.26123C10.7812 4.86831 11.1071 4.54248 11.5 4.54248C11.8929 4.54248 12.2187 4.86831 12.2187 5.26123V19.6362C12.2187 20.0387 11.8929 20.355 11.5 20.355Z" fill="#1F3A44"/>
<path d="M7.42703 8.85498H5.27078C4.87787 8.85498 4.55203 8.52915 4.55203 8.13623C4.55203 7.74331 4.87787 7.41748 5.27078 7.41748H7.42703C7.81995 7.41748 8.14578 7.74331 8.14578 8.13623C8.14578 8.52915 7.81995 8.85498 7.42703 8.85498Z" fill="#1F3A44"/>
<path d="M8.14578 11.73H5.27078C4.87787 11.73 4.55203 11.4041 4.55203 11.0112C4.55203 10.6183 4.87787 10.2925 5.27078 10.2925H8.14578C8.5387 10.2925 8.86453 10.6183 8.86453 11.0112C8.86453 11.4041 8.5387 11.73 8.14578 11.73Z" fill="#1F3A44"/>
</svg>
